<svg width="484.955" height="484.955" xmlns="http://www.w3.org/2000/svg">

 <g>
  <title>background</title>
  <rect fill="none" id="canvas_background" height="402" width="582" y="-1" x="-1"/>
 </g>
 <g>
  <title>Layer 1</title>
  <g id="svg_1">
   <g id="svg_2">
    <path id="svg_4" d="m145.005,318.355l268.9,0c29.7,0 53.8,-24.2 53.8,-53.8l0,-113.3c0,-6.6 -5.4,-12 -12,-12s-12,5.4 -12,12l0,113.2c0,16.5 -13.4,29.8 -29.8,29.8l-268.9,0c-16.5,0 -29.8,-13.4 -29.8,-29.8l0,-66.7l0,-74.6l0,-9.7l0,-70.2c0,-0.4 0,-0.9 -0.1,-1.3c0,-0.1 0,-0.2 0,-0.3c0,-0.3 -0.1,-0.6 -0.1,-0.8s-0.1,-0.5 -0.2,-0.7c0,-0.1 -0.1,-0.3 -0.1,-0.4c-0.1,-0.3 -0.2,-0.5 -0.3,-0.8c0,-0.1 -0.1,-0.2 -0.1,-0.3c-0.1,-0.2 -0.2,-0.5 -0.3,-0.7c-0.1,-0.1 -0.1,-0.3 -0.2,-0.4c-0.1,-0.2 -0.2,-0.4 -0.3,-0.6c-0.1,-0.2 -0.2,-0.3 -0.3,-0.5c-0.1,-0.1 -0.2,-0.3 -0.3,-0.4c-0.1,-0.2 -0.3,-0.4 -0.4,-0.5s-0.2,-0.2 -0.3,-0.3c-0.2,-0.2 -0.3,-0.4 -0.5,-0.6c-0.1,-0.1 -0.2,-0.2 -0.3,-0.2c-0.2,-0.2 -0.4,-0.4 -0.6,-0.5c-0.1,-0.1 -0.2,-0.2 -0.3,-0.3c-0.2,-0.1 -0.4,-0.3 -0.6,-0.4c-0.2,-0.2 -0.5,-0.3 -0.7,-0.5c-0.1,0 -0.2,-0.1 -0.2,-0.2c-0.4,-0.2 -0.8,-0.4 -1.2,-0.6l-73.9,-31c-6.1,-2.6 -13.1,0.3 -15.7,6.4c-2.6,6 0.3,13.1 6.4,15.7l66.5,28.1l0,62.3l0,9.7l0,74.6l0,66.7l0,84.3c0,28.2 21.7,51.3 49.3,53.6c-5.6,8.4 -8.9,18.5 -8.9,29.4c0,29.3 23.9,53.2 53.2,53.2s53.2,-23.9 53.2,-53.2c0,-10.8 -3.2,-20.8 -8.7,-29.2l127.3,0c-5.5,8.4 -8.7,18.4 -8.7,29.2c0,29.3 23.9,53.2 53.2,53.2s53.2,-23.9 53.2,-53.2s-23.9,-53.2 -53.2,-53.2l-256,0c-16.5,0 -29.8,-13.4 -29.8,-29.8l0,-39.5c8.5,5.7 18.8,9.1 29.8,9.1zm68.9,113.4c0,16.1 -13.1,29.2 -29.2,29.2s-29.2,-13.1 -29.2,-29.2s13.1,-29.2 29.2,-29.2s29.2,13.1 29.2,29.2zm216.2,0c0,16.1 -13.1,29.2 -29.2,29.2s-29.2,-13.1 -29.2,-29.2s13.1,-29.2 29.2,-29.2s29.2,13.1 29.2,29.2z"/>
   </g>
  </g>
  <g id="svg_5"/>
  <g id="svg_6"/>
  <g id="svg_7"/>
  <g id="svg_8"/>
  <g id="svg_9"/>
  <g id="svg_10"/>
  <g id="svg_11"/>
  <g id="svg_12"/>
  <g id="svg_13"/>
  <g id="svg_14"/>
  <g id="svg_15"/>
  <g id="svg_16"/>
  <g id="svg_17"/>
  <g id="svg_18"/>
  <g id="svg_19"/>
 </g>
</svg>